<?xml version="1.0" standalone="no"?>
<!DOCTYPE svg PUBLIC "-//W3C//DTD SVG 20010904//EN"
 "http://www.w3.org/TR/2001/REC-SVG-20010904/DTD/svg10.dtd">
<svg version="1.0" xmlns="http://www.w3.org/2000/svg"
 width="1920.000000pt" height="400.000000pt" viewBox="0 0 1920.000000 400.000000"
 preserveAspectRatio="xMidYMid meet">

<g transform="translate(0.000000,400.000000) scale(0.100000,-0.100000)"
fill="#000000" stroke="none">
<path d="M12695 3576 c-43 -19 -50 -30 -89 -143 -20 -55 -66 -174 -104 -264
-38 -90 -112 -265 -164 -389 -52 -124 -130 -323 -173 -444 -93 -257 -90 -254
-190 -211 -159 67 -321 186 -415 303 -27 35 -86 135 -130 222 -88 173 -135
232 -198 249 -74 20 -126 -10 -207 -124 -82 -116 -137 -247 -174 -419 -27
-122 -85 -814 -72 -849 5 -14 19 -31 29 -39 11 -7 27 -30 36 -51 29 -70 124
-86 179 -29 62 65 97 183 137 471 30 212 44 270 63 272 139 12 236 -50 526
-335 121 -119 247 -233 286 -259 65 -44 74 -47 135 -47 78 0 138 25 169 69 19
26 23 51 31 173 16 250 54 427 166 783 31 99 63 207 71 240 8 33 28 96 43 140
16 44 35 105 43 135 9 32 38 91 71 140 31 47 64 109 72 139 32 108 -3 238 -71
267 -40 16 -33 16 -70 0z"/>
<path d="M1194 3545 c-187 -34 -342 -112 -494 -247 -141 -125 -178 -196 -237
-457 -51 -229 -73 -291 -132 -371 -84 -116 -96 -144 -96 -235 1 -64 5 -87 22
-115 17 -28 24 -62 33 -172 14 -178 2 -350 -51 -753 -32 -249 -42 -354 -46
-530 -5 -193 -4 -225 11 -253 20 -38 43 -52 89 -52 36 0 82 29 91 58 3 9 24
141 46 292 64 447 109 749 126 845 20 118 82 409 94 440 14 36 94 72 227 100
161 34 183 42 415 139 267 111 303 122 443 140 113 13 121 16 147 45 39 44 38
92 -2 133 -28 28 -35 29 -88 26 -31 -3 -264 -22 -518 -43 -253 -21 -472 -35
-487 -31 -15 3 -34 17 -42 29 -14 21 -12 32 16 123 37 120 107 259 157 313 31
32 66 51 200 105 89 37 217 80 285 97 67 16 139 34 160 40 72 19 147 117 147
191 -1 80 -42 112 -178 138 -116 23 -233 24 -338 5z"/>
<path d="M3731 3169 c-26 -5 -77 -31 -127 -64 -188 -127 -289 -139 -413 -50
-45 33 -83 32 -122 -3 -34 -30 -26 -5 -124 -417 -61 -259 -88 -384 -181 -835
-82 -400 -125 -594 -176 -795 -38 -149 -40 -166 -34 -255 6 -98 32 -225 62
-299 18 -45 54 -71 100 -71 39 0 94 59 94 102 0 45 18 322 31 483 29 366 99
585 230 729 62 68 100 81 218 73 86 -6 76 -3 561 -172 187 -65 269 -80 445
-80 128 0 161 3 222 23 94 29 103 43 103 150 0 79 -2 85 -29 113 -25 25 -37
29 -84 29 -125 0 -287 39 -575 137 -179 61 -193 68 -213 100 l-22 35 53 53
c34 35 108 86 209 146 267 158 362 233 407 321 44 84 37 196 -18 308 -60 123
-170 201 -330 234 -82 17 -215 19 -287 5z m241 -333 c15 -4 32 -15 38 -26 55
-103 -536 -594 -743 -617 l-47 -6 0 84 c1 204 60 312 221 402 78 44 279 131
340 147 49 14 138 27 154 24 6 -1 22 -5 37 -8z"/>
<path d="M6323 3100 c-36 -15 -50 -48 -87 -215 -87 -391 -255 -1311 -259
-1416 -4 -93 51 -140 172 -147 148 -8 153 1 161 348 l6 265 107 276 c134 350
151 423 144 634 -6 177 -16 219 -60 245 -34 21 -142 27 -184 10z"/>
<path d="M8636 3024 c-157 -35 -347 -133 -425 -221 -68 -76 -101 -136 -200
-365 -96 -221 -107 -263 -115 -429 -4 -73 -13 -132 -30 -185 -34 -108 -44
-182 -51 -374 -7 -179 -3 -196 47 -233 26 -19 29 -19 165 -2 587 73 959 204
1188 417 55 51 60 59 60 98 0 35 -6 47 -34 72 l-34 31 -102 -6 c-141 -8 -299
-46 -556 -133 -120 -41 -228 -74 -238 -74 -32 0 -61 47 -61 99 0 50 27 103 97
189 48 59 79 72 174 75 78 2 81 3 113 38 l33 36 86 -5 c80 -4 89 -2 132 22 25
15 92 41 148 58 96 28 122 40 205 87 30 17 37 18 85 5 70 -19 114 -17 163 5
84 38 109 113 56 172 l-28 32 -557 -2 c-399 -1 -557 1 -557 9 0 30 27 51 102
80 108 41 306 92 488 126 126 24 149 31 173 55 26 26 27 32 27 127 0 132 -13
150 -132 183 -107 29 -318 36 -422 13z"/>
<path d="M18492 2965 c-181 -134 -358 -245 -513 -321 -291 -144 -414 -255
-454 -412 -13 -51 -14 -73 -6 -113 19 -89 88 -167 184 -209 66 -29 310 -37
497 -16 157 18 398 13 412 -8 36 -54 -61 -137 -295 -253 -124 -62 -279 -116
-380 -134 -60 -10 -73 -16 -108 -53 -102 -106 -130 -260 -56 -307 45 -28 84
-19 160 35 96 68 200 117 422 197 223 80 365 146 460 213 124 89 207 209 242
349 15 64 15 71 -1 103 -13 28 -31 42 -89 69 -157 74 -281 90 -644 81 l-273
-7 0 35 c0 32 7 39 88 99 185 135 376 240 543 298 153 53 197 116 184 262 -14
154 -27 167 -171 167 l-101 0 -101 -75z"/>
<path d="M14544 3003 c-30 -6 -74 -55 -75 -83 0 -14 2 -69 7 -122 8 -113 -6
-242 -41 -363 -13 -44 -85 -230 -159 -413 -75 -182 -141 -352 -147 -377 -22
-88 -7 -225 44 -390 25 -82 48 -158 52 -167 13 -33 52 -48 124 -48 128 0 144
19 151 184 l5 119 68 24 c110 38 236 68 557 133 325 66 518 121 642 187 54 28
100 64 173 138 142 142 168 206 168 415 0 176 -47 315 -154 453 -75 98 -215
188 -376 244 -71 24 -94 27 -248 29 -93 2 -250 12 -347 23 -159 19 -385 26
-444 14z m336 -364 c30 -5 174 -13 320 -19 355 -15 444 -37 549 -139 72 -70
141 -220 141 -305 0 -43 -51 -128 -102 -168 -98 -79 -151 -100 -422 -168 -107
-27 -226 -60 -264 -74 -65 -22 -71 -23 -101 -9 -17 9 -54 44 -81 78 -70 88
-78 90 -189 45 -59 -24 -88 -30 -148 -30 -68 0 -74 2 -68 18 102 255 221 607
246 730 13 60 14 63 39 57 14 -4 50 -11 80 -16z"/>
<path d="M5155 2192 c-34 -18 -59 -42 -80 -76 -26 -43 -30 -59 -30 -121 0 -97
35 -157 114 -197 128 -65 264 -11 316 126 72 187 -141 366 -320 268z"/>
<path d="M7154 2201 c-116 -30 -189 -147 -164 -266 23 -111 105 -179 216 -180
79 0 145 38 189 109 25 42 30 59 30 116 0 57 -5 74 -30 116 -52 83 -154 127
-241 105z"/>
<path d="M16748 2201 c-111 -36 -182 -150 -163 -260 10 -60 57 -125 112 -158
103 -60 232 -25 297 81 25 40 30 58 30 115 1 58 -3 74 -29 117 -52 84 -164
131 -247 105z"/>
<path d="M13219 2186 c-61 -16 -104 -48 -136 -104 -23 -39 -28 -59 -28 -117 0
-58 5 -78 27 -115 90 -154 315 -146 389 15 23 50 25 142 3 193 -41 100 -150
155 -255 128z"/>
</g>
</svg>
